# xmcd
#
# Track frame offsets:
#	150
#	16222
#	37830
#	59575
#	76352
#	89637
#	103635
#	121615
#	141695
#	157357
#	172307
#	187087
#
# Disc length: 2713 seconds
#
# Revision: 1
# Processed by: cddbd v1.5.2PL0 Copyright (c) Steve Scherf et al.
# Submitted via: EasyCDDAExtractor 15.3.0.1
#
DISCID=ad0a970c
DTITLE=Dulce - Jugo De Exitos - CD 1
DYEAR=1999
DGENRE=Latin
TTITLE0=Heridas
TTITLE1=Ay Amor
TTITLE2=Duele (Amor De Mi Vida)
TTITLE3=Tu Muñeca
TTITLE4=Fui Demasiado Facil
TTITLE5=Amorcito Corazon
TTITLE6=Como Si Fuera Loca
TTITLE7=Pajaro Herido
TTITLE8=Usted
TTITLE9=Poquita Fe
TTITLE10=Sin Ti
TTITLE11=Si Nos Dejan
EXTD=YEAR: 1998
EXTT0=
EXTT1=
EXTT2=
EXTT3=
EXTT4=
EXTT5=
EXTT6=
EXTT7=
EXTT8=
EXTT9=
EXTT10=
EXTT11=
PLAYORDER=
